#N canvas 332 54 852 691 10;
#N canvas 0 22 450 300 about 0;
#X text 98 108 Guns by Piotr Goj \, kretopi@gmail.com;
#X restore 580 512 pd about;
#X obj 310 101 noise~;
#X obj 435 459 *~;
#X obj 426 519 dac~;
#X obj 435 486 *~;
#X obj 491 452 r volMaster @hv_param 0 2 1;
#X obj 503 135 t b b b;
#N canvas 0 23 810 568 adsr 0;
#X obj 463 510 outlet~;
#X obj 640 270 outlet;
#X obj 464 477 line~;
#X obj 448 280 pack 1 f;
#X obj 509 243 t f f;
#X obj 521 279 del;
#X obj 521 388 pack f f;
#X obj 536 344 / 10;
#X obj 521 302 t b b;
#X obj 578 408 del;
#X obj 605 459 pack 0 f;
#X obj 566 323 t f f;
#X obj 578 432 t b b;
#X obj 623 433 t f f;
#X obj 521 364 f;
#X obj 508 115 r attack @hv_param 0 100 10;
#X obj 447 212 r Play @hv_event;
#X obj 433 60 r decayTime @hv_param 0 10 5;
#X obj 445 242 t b b b;
#X obj 569 195 r sustain @hv_param 0 1000 100;
#X obj 620 339 r release @hv_param 0 1000 70;
#X connect 2 0 0 0;
#X connect 3 0 2 0;
#X connect 4 0 3 1;
#X connect 4 1 5 1;
#X connect 5 0 8 0;
#X connect 6 0 2 0;
#X connect 7 0 14 1;
#X connect 8 0 14 0;
#X connect 8 1 9 0;
#X connect 9 0 12 0;
#X connect 10 0 2 0;
#X connect 11 0 6 1;
#X connect 11 1 9 1;
#X connect 12 1 10 0;
#X connect 13 1 10 1;
#X connect 14 0 6 0;
#X connect 15 0 4 0;
#X connect 16 0 18 0;
#X connect 17 0 7 0;
#X connect 18 0 3 0;
#X connect 18 1 5 0;
#X connect 18 2 1 0;
#X connect 19 0 11 0;
#X connect 20 0 13 0;
#X restore 452 99 pd adsr;
#N canvas 0 23 450 300 low 0;
#X obj 201 394 lop~;
#X obj 225 366 r lop @hv_param 0 20000 200;
#X obj 188 298 +;
#X msg 224 261 0;
#X obj 230 144 -;
#X obj 248 122 / 2;
#X obj 207 91 t f f f;
#X obj 168 190 random;
#X obj 168 212 -;
#X obj 201 230 t b b f;
#X obj 207 63 r randomLow @hv_param 0 500 0;
#X obj 108 343 inlet~;
#X obj 272 437 line~ f 10;
#X obj 270 410 r volLow @hv_param 0 2 1;
#X obj 200 428 *~;
#X obj 200 463 outlet~;
#X obj 141 116 inlet;
#X connect 0 0 14 0;
#X connect 1 0 9 0;
#X connect 2 0 0 1;
#X connect 3 0 2 0;
#X connect 4 0 8 1;
#X connect 5 0 4 1;
#X connect 6 0 7 1;
#X connect 6 1 4 0;
#X connect 6 2 5 0;
#X connect 7 0 8 0;
#X connect 8 0 2 0;
#X connect 9 0 2 0;
#X connect 9 1 3 0;
#X connect 9 2 2 1;
#X connect 10 0 6 0;
#X connect 11 0 0 0;
#X connect 12 0 14 1;
#X connect 13 0 12 0;
#X connect 14 0 15 0;
#X connect 16 0 7 0;
#X restore 326 337 pd low;
#N canvas 287 104 758 615 high 0;
#X obj 171 445 hip~;
#X obj 166 535 *~;
#X obj 211 299 r hip @hv_param 0 20000 2000;
#X obj 181 471 r volHigh @hv_param 0 2 1;
#X obj 185 502 line~ f 10;
#X obj 198 398 +;
#X msg 234 361 0;
#X obj 240 214 -;
#X obj 258 192 / 2;
#X obj 217 161 t f f f;
#X obj 178 260 random;
#X obj 178 282 -;
#X obj 211 330 t b b f;
#X obj 217 133 r randomHi @hv_param 0 500 0;
#X obj 92 405 inlet~;
#X obj 165 223 inlet;
#X obj 167 569 outlet~;
#X connect 0 0 1 0;
#X connect 1 0 16 0;
#X connect 2 0 12 0;
#X connect 3 0 4 0;
#X connect 4 0 1 1;
#X connect 5 0 0 1;
#X connect 6 0 5 0;
#X connect 7 0 11 1;
#X connect 8 0 7 1;
#X connect 9 0 10 1;
#X connect 9 1 7 0;
#X connect 9 2 8 0;
#X connect 10 0 11 0;
#X connect 11 0 5 0;
#X connect 12 0 5 0;
#X connect 12 1 6 0;
#X connect 12 2 5 1;
#X connect 13 0 9 0;
#X connect 14 0 0 0;
#X connect 15 0 10 0;
#X restore 259 342 pd high;
#N canvas 89 74 924 664 band 0;
#X obj 563 389 bp~, f 5;
#X obj 590 363 / 100;
#X obj 570 485 *~;
#X obj 617 204 r band @hv_param 0 20000 500;
#X obj 595 414 r volBand @hv_param 0 2 1;
#X obj 595 449 line~ f 10;
#X obj 587 333 r bandQ @hv_param 0 500 50;
#X obj 580 302 +;
#X msg 616 265 0;
#X obj 622 148 -;
#X obj 640 126 / 2;
#X obj 599 95 t f f f;
#X obj 560 194 random;
#X obj 560 216 -;
#X obj 593 234 t b b f;
#X obj 599 67 r randomBand @hv_param 0 500 0;
#X obj 557 163 inlet;
#X obj 416 263 inlet~;
#X obj 565 550 outlet~;
#X connect 0 0 2 0;
#X connect 1 0 0 2;
#X connect 2 0 18 0;
#X connect 3 0 14 0;
#X connect 4 0 5 0;
#X connect 5 0 2 1;
#X connect 6 0 1 0;
#X connect 7 0 0 1;
#X connect 8 0 7 0;
#X connect 9 0 13 1;
#X connect 10 0 9 1;
#X connect 11 0 12 1;
#X connect 11 1 9 0;
#X connect 11 2 10 0;
#X connect 12 0 13 0;
#X connect 13 0 7 0;
#X connect 14 0 7 0;
#X connect 14 1 8 0;
#X connect 14 2 7 1;
#X connect 15 0 11 0;
#X connect 16 0 12 0;
#X connect 17 0 0 0;
#X restore 182 348 pd band;
#X obj 858 379 pack;
#X obj 859 640 *~;
#X floatatom 859 310 5 0 0 0 - - -, f 5;
#X floatatom 886 340 5 0 0 0 - - -, f 5;
#X obj 842 358 f;
#X msg 1339 264 300;
#X msg 1299 312 100;
#X msg 1362 243 500;
#X msg 967 248 70;
#X msg 984 222 100;
#X msg 1019 171 200;
#X msg 995 198 150;
#X msg 1039 151 300;
#X msg 1321 286 150;
#X obj 1019 566 phasor~;
#X obj 1020 597 *~ 2;
#X obj 1020 634 -~ 1;
#X obj 1017 659 *~;
#X obj 853 554 osc~;
#X obj 1086 151 random 20;
#X obj 1086 173 - 10;
#X obj 993 301 +;
#X obj 958 103 random 5;
#X obj 958 125 route 0 1 2 3 4;
#X obj 964 77 t b b;
#X obj 1295 175 t b b;
#X obj 1295 197 random 4;
#X obj 1295 219 route 0 1 2 3;
#X obj 1400 196 random 40;
#X obj 1400 218 - 20;
#X obj 1366 355 +;
#X obj 843 419 line~;
#X obj 697 331 t b b;
#X msg 693 367 8000;
#X obj 693 389 +;
#X obj 752 371 random 5000;
#X obj 752 393 - 3000;
#X obj 825 -3 del;
#X obj 798 56 line~;
#X msg 816 30 0 1;
#X msg 752 27 1 1;
#X obj 744 -60 bng 15 250 50 0 empty empty empty 17 7 0 10 -262144
-1 -1;
#X obj 856 610 *~;
#X obj 924 533 r volOsc @hv_param 0 2 1;
#X obj 744 -39 t b b b b b b;
#X obj 1064 623 r volPhasor @hv_param 0 2 1;
#X obj 585 -41 r Play @hv_event;
#X connect 1 0 8 0;
#X connect 1 0 9 0;
#X connect 1 0 10 0;
#X connect 2 0 4 0;
#X connect 4 0 3 0;
#X connect 4 0 3 1;
#X connect 5 0 4 1;
#X connect 6 0 9 1;
#X connect 6 1 8 1;
#X connect 6 2 10 1;
#X connect 7 0 2 1;
#X connect 7 1 6 0;
#X connect 8 0 2 0;
#X connect 9 0 2 0;
#X connect 10 0 2 0;
#X connect 11 0 42 0;
#X connect 12 0 4 0;
#X connect 13 0 15 1;
#X connect 14 0 11 1;
#X connect 15 0 11 0;
#X connect 16 0 41 0;
#X connect 17 0 41 0;
#X connect 18 0 41 0;
#X connect 19 0 32 0;
#X connect 20 0 32 0;
#X connect 21 0 32 0;
#X connect 22 0 32 0;
#X connect 23 0 32 0;
#X connect 24 0 41 0;
#X connect 25 0 26 0;
#X connect 26 0 27 0;
#X connect 27 0 28 0;
#X connect 28 0 12 0;
#X connect 29 0 53 0;
#X connect 30 0 31 0;
#X connect 31 0 32 1;
#X connect 32 0 13 0;
#X connect 33 0 34 0;
#X connect 34 0 19 0;
#X connect 34 1 20 0;
#X connect 34 2 22 0;
#X connect 34 3 21 0;
#X connect 34 4 23 0;
#X connect 35 0 33 0;
#X connect 35 1 30 0;
#X connect 36 0 37 0;
#X connect 36 1 39 0;
#X connect 37 0 38 0;
#X connect 38 0 17 0;
#X connect 38 1 24 0;
#X connect 38 2 16 0;
#X connect 38 3 18 0;
#X connect 39 0 40 0;
#X connect 40 0 41 1;
#X connect 41 0 14 0;
#X connect 41 0 48 1;
#X connect 42 0 29 0;
#X connect 42 0 25 0;
#X connect 43 0 44 0;
#X connect 43 1 46 0;
#X connect 44 0 45 0;
#X connect 45 0 42 0;
#X connect 46 0 47 0;
#X connect 47 0 45 1;
#X connect 48 0 50 0;
#X connect 49 0 12 1;
#X connect 50 0 49 0;
#X connect 51 0 49 0;
#X connect 52 0 55 0;
#X connect 53 0 12 0;
#X connect 54 0 53 1;
#X connect 55 0 15 0;
#X connect 55 1 48 0;
#X connect 55 2 51 0;
#X connect 55 3 35 0;
#X connect 55 4 36 0;
#X connect 55 5 43 0;
#X connect 56 0 28 1;
#X connect 57 0 55 0;
